<?xml version="1.0" encoding="UTF-8"?>
<!DOCTYPE svg PUBLIC "-//W3C//DTD SVG 1.1//EN" "http://www.w3.org/Graphics/SVG/1.1/DTD/svg11.dtd">
<svg version="1.1" xmlns="http://www.w3.org/2000/svg" xmlns:xlink="http://www.w3.org/1999/xlink" x="0" y="0" width="971.95" height="870.704" viewBox="0, 0, 971.95, 870.704">
  <defs>
    <radialGradient id="Gradient_1" gradientUnits="userSpaceOnUse" cx="804.014" cy="243.13" r="25.204">
      <stop offset="0" stop-color="#FAC0B3"/>
      <stop offset="0.42" stop-color="#FCD4C4"/>
      <stop offset="0.988" stop-color="#FEE7D4"/>
      <stop offset="1" stop-color="#FEE7D4"/>
    </radialGradient>
    <radialGradient id="Gradient_2" gradientUnits="userSpaceOnUse" cx="98.596" cy="301.875" r="27.338">
      <stop offset="0" stop-color="#FAC0B3"/>
      <stop offset="0.42" stop-color="#FCD4C4"/>
      <stop offset="0.988" stop-color="#FEE7D4"/>
      <stop offset="1" stop-color="#FEE7D4"/>
    </radialGradient>
    <radialGradient id="Gradient_3" gradientUnits="userSpaceOnUse" cx="380.267" cy="311.673" r="27.337">
      <stop offset="0" stop-color="#FAC0B3"/>
      <stop offset="0.42" stop-color="#FCD4C4"/>
      <stop offset="0.988" stop-color="#FEE7D4"/>
      <stop offset="1" stop-color="#FEE7D4"/>
    </radialGradient>
    <radialGradient id="Gradient_4" gradientUnits="userSpaceOnUse" cx="589.301" cy="320.439" r="25.203">
      <stop offset="0" stop-color="#FAC0B3"/>
      <stop offset="0.42" stop-color="#FCD4C4"/>
      <stop offset="0.988" stop-color="#FEE7D4"/>
      <stop offset="1" stop-color="#FEE7D4"/>
    </radialGradient>
    <radialGradient id="Gradient_5" gradientUnits="userSpaceOnUse" cx="870.551" cy="320.439" r="25.203">
      <stop offset="0" stop-color="#FAC0B3"/>
      <stop offset="0.42" stop-color="#FCD4C4"/>
      <stop offset="0.988" stop-color="#FEE7D4"/>
      <stop offset="1" stop-color="#FEE7D4"/>
    </radialGradient>
  </defs>
  <g id="Layer_1">
    <path d="M478.38,274.502 C478.018,274.14 477.48,273.602 476.943,273.602 C476.397,276.845 470.46,276.3 469.923,279.54 C469.385,279.54 468.125,279.365 467.94,280.077 C447.783,286.387 450.302,309.785 437.158,322.92 C434.462,333.007 426.358,340.742 423.663,350.645 C413.038,356.942 415.742,367.745 404.405,372.607 C384.6,392.227 357.238,405.722 331.318,416.71 C323.397,418.32 316.738,422.822 308.818,424.082 C290.098,427.862 269.943,430.38 249.775,428.76 L248.34,430.205 C261.475,438.125 261.475,457.207 275.88,464.227 C315.478,498.602 329.522,545.585 348.418,588.602 C352.557,602.285 351.835,617.587 360.302,629.462 C362.638,642.607 361.925,657.002 349.863,664.745 C340.323,671.045 327.715,673.387 315.478,671.582 L310.44,668.165 C308.28,682.03 310.078,694.805 309.18,709.745 C305.4,744.667 310.263,782.647 307.735,817.93 C317.638,828.007 326.28,838.447 325.918,852.665 C328.263,855.185 327.54,859.687 326.64,862.567 C314.755,872.647 297.842,870.665 283.975,870.312 C263.643,866.885 242.94,870.665 224.58,862.392 C194.698,864.365 167.695,862.207 138.175,861.845 C132.773,860.225 128.633,856.992 125.938,852.13 C129.355,846.552 125.04,839.53 132.06,836.465 L130.615,835.927 C134.395,834.667 136.738,830.527 137.46,827.285 C143.76,819.912 150.958,813.602 159.775,811.27 C145.38,779.042 142.315,741.612 135.293,706.327 C136.2,691.747 131.513,675.547 131.875,660.067 C117.843,662.587 102.178,658.622 93.535,645.302 C88.673,637.382 82.92,629.102 85.978,618.847 C87.06,611.825 92.275,606.425 95.518,600.302 C91.378,599.405 91.738,596.522 89.58,593.28 C100.558,550.262 126.66,510.665 155.635,477.55 C160.312,473.407 164.815,467.11 170.938,463.145 L171.475,464.042 C177.06,460.45 180.118,453.427 187.675,453.242 C190.195,451.807 187.863,448.565 189.658,446.767 C192.178,437.95 200.098,428.76 209.452,427.325 L211.798,424.63 C208.193,422.647 204.238,422.647 200.273,421.925 C175.615,415.262 148.263,410.585 126.835,393.662 C77.695,368.467 49.073,320.4 35.753,271.62 C27.12,262.08 10.733,260.282 5.155,246.065 C-1.142,232.745 -2.227,215.46 4.98,201.777 C11.64,195.302 18.838,190.987 28.193,190.8 C27.12,159.845 38.818,131.757 53.935,106.025 C66.533,90.185 80.938,73.622 98.213,61.562 C111.183,52.745 126.113,46.62 142.138,46.62 C146.64,35.645 156.357,21.415 169.14,19.442 C184.258,10.977 203.878,11.7 221.7,8.457 C285.42,3.78 336.358,32.217 385.138,66.777 C402.06,81.182 423.478,97.745 433.203,116.64 C440.04,120.057 440.225,129.425 445.625,133.925 C452.823,147.597 460.205,161.465 465.057,176.405 C465.245,187.197 472.443,194.765 467.04,205.38 C476.22,206.465 485.938,208.8 490.44,218.165 C501.24,236.337 495.117,262.977 478.203,273.965 z M478.38,274.502" fill="#000000"/>
    <path d="M956.825,307.628 C951.065,310.147 944.943,313.74 937.93,311.405 C936.123,309.425 933.243,309.425 930.908,308.525 C924.61,331.388 908.945,350.82 893.28,367.745 L889.14,368.467 C891.308,369.54 888.243,370.44 888.603,372.06 C875.108,383.223 862.5,396.905 847.568,403.027 C816.788,418.867 784.56,432.55 747.665,431.465 C749.463,436.328 742.978,447.305 753.428,445.323 C774.668,456.122 795.363,478.448 809.943,497.88 C810.128,502.93 815.343,505.45 817.148,509.765 C820.205,514.083 821.465,519.307 825.068,523.622 C824.708,525.43 826.865,528.3 828.663,530.645 C839.825,552.607 847.92,577.09 853.145,601.025 C857.823,603.008 853.145,605.343 851.885,607.51 C863.408,616.69 868.448,631.445 867.55,644.95 C865.568,648.182 862.5,652.325 864.845,655.568 C870.605,667.802 858.72,687.245 876.005,691.925 C901.925,714.61 913.623,745.39 921.728,775.263 C933.243,779.405 926.768,793.985 930.723,802.628 C930.908,811.63 928.925,818.828 924.96,827.285 C920.82,826.573 919.21,830.888 915.605,831.612 C913.085,835.39 906.963,836.465 902.648,838.807 C868.085,848.888 819.308,853.565 794.103,821.172 C786.183,805.148 796.445,789.492 789.785,773.468 L789.6,765.01 C780.605,765.732 770.88,769.688 760.988,770.585 C757.558,775.987 760.088,784.093 758.468,790.205 C760.625,798.31 757.745,810.732 761.885,818.828 C782.403,822.792 806.885,832.87 817.325,854.472 C817.148,857.705 821.465,859.688 818.945,862.93 C808.683,873.37 790.323,866.71 777.003,869.765 C762.783,870.85 744.238,869.765 729.308,866.533 C712.92,870.128 699.425,867.07 682.138,867.432 C664.678,868.33 644.523,870.487 629.943,864.365 C627.06,862.03 626.338,857.705 627.783,854.472 C637.685,831.972 662.345,823.33 683.945,817.745 C684.12,799.932 677.823,782.11 674.765,765.908 C655.323,758.888 634.258,756.727 617.345,743.047 C620.4,718.203 626.338,691.025 629.405,667.09 C629.405,665.645 629.58,663.847 627.783,662.95 C615.363,671.045 601.143,661.328 590.518,654.482 C578.818,641.347 575.585,623.525 583.145,607.51 C584.765,601.025 594.12,599.765 593.398,592.383 C602.228,574.385 608.165,554.943 617.88,537.305 C624.365,520.568 636.963,505.625 646.318,489.61 C649.745,486.543 653.888,482.228 655.498,477.725 C658.38,476.465 661.085,474.668 660.898,471.24 C676.388,458.28 691.143,444.96 711.485,442.265 C707.52,438.3 713.105,432.362 709.14,428.223 C703.565,428.048 697.978,426.603 693.663,426.425 C691.318,424.443 688.085,426.603 686.103,424.443 L681.065,424.63 C681.425,424.082 681.963,423.72 681.603,423.182 L681.065,422.285 C677.285,426.425 674.043,421.025 669.728,421.925 C615,410.05 548.585,370.087 537.783,308.525 C536.523,306.182 538.32,302.587 535.625,300.967 C528.965,304.923 522.12,300.245 516.543,297.003 C507.363,288.72 498.898,278.818 501.963,265.682 C502.685,255.78 506.818,244.443 517.08,240.84 C521.398,239.943 527.345,239.22 531.123,241.387 L532.558,239.943 C530.763,217.803 535.263,190.8 545.88,170.098 C552.54,166.68 549.845,158.585 556.143,154.443 C562.978,142.92 570.538,130.497 580.988,121.865 C580.625,117.54 587.638,113.585 590.518,110.518 C590.518,111.065 591.065,111.425 591.425,111.603 C591.963,111.065 593.223,110.702 592.863,109.443 L591.963,108.898 L598.263,103.858 L598.8,104.405 C601.143,100.625 605.098,99.365 608.525,95.938 C612.665,97.92 611.943,91.445 616.085,93.418 C617.88,91.62 620.4,91.62 621.66,89.278 C620.4,87.843 618.78,89.638 617.52,90.898 L624.365,85.86 L621.485,88.925 C626.338,87.12 632.823,85.138 637.685,80.645 L636.778,80.098 L638.223,78.663 L638.223,79.2 C639.658,80.098 642.003,79.738 643.085,77.94 L642.178,77.04 C645.058,74.16 652.978,70.918 658.38,71.103 C666.66,63.898 680.528,63.898 690.968,62.1 C690.42,50.04 687.54,36.72 695.283,26.28 C708.243,11.163 726.425,2.52 746.045,0.723 C768.72,-2.695 789.96,6.3 807.06,22.675 C818.408,36.72 830.283,55.978 821.103,73.623 C851.523,88.018 883.388,102.238 905.888,131.758 C928.388,165.605 942.423,207.54 940.263,247.863 C946.925,248.048 956.103,246.065 961.328,251.64 C969.785,261.72 975.01,277.207 969.96,290.703 C966.543,296.28 962.228,303.125 956.825,307.978 z M956.825,307.628" fill="#000000"/>
    <path d="M839.102,243.183 C839.102,262.443 823.447,278.105 804.18,278.105 C784.922,278.105 769.267,262.443 769.267,243.183 C769.267,223.925 784.922,208.263 804.18,208.263 C823.447,208.263 839.102,223.925 839.102,243.183 z M839.102,243.183" fill="url(#Gradient_1)"/>
    <path d="M863.585,255.605 C863.585,274.862 847.92,290.702 828.662,290.702 C809.405,290.702 793.74,275.04 793.74,255.605 C793.74,236.337 809.405,220.682 828.662,220.682 C847.92,220.682 863.585,236.337 863.585,255.605 z M863.585,255.605" fill="#868789"/>
    <path d="M467.04,270.185 C465.42,272.345 460.02,271.26 460.918,274.688 C458.223,273.78 456.24,273.067 453.897,274.862 L452.46,276.3 L451.925,275.4 C442.022,294.307 429.775,314.825 419.883,335.165 C411.065,353.7 396.485,365.225 381.182,379.442 C378.478,380.165 375.595,383.408 373.075,385.205 C365.518,390.245 355.615,395.47 347.158,397.628 C315.478,414.902 283.075,419.227 244.2,417.607 C236.095,422.647 246.543,437.402 233.398,435.967 C230.88,437.762 227.275,439.385 224.033,437.587 L219.18,432.725 C220.8,429.12 222.598,424.98 221.512,420.128 C210.723,409.14 193.8,410.947 179.943,406.26 C138.72,393.487 98.398,371.7 72.295,333.007 C57.9,312.12 52.138,287.647 44.395,263.7 C40.255,258.487 34.678,260.107 29.638,255.78 C24.6,256.865 21.358,254.522 18.115,251.64 C8.575,238.867 8.213,222.305 14.698,208.085 C19.013,203.585 21.895,199.98 27.655,199.62 C32.335,196.562 32.335,204.307 36.3,204.12 C35.938,205.02 36.66,205.205 36.835,205.567 L38.273,205.567 C38.095,206.64 39.18,207.002 39.718,207.54 C43.858,208.985 45.478,205.38 46.553,202.685 C44.395,193.857 52.853,189.365 52.675,181.445 C67.255,150.665 85.078,112.862 119.103,98.457 C125.763,93.417 133.683,91.085 141.415,88.925 C149.335,108.897 158.34,129.425 176.163,144.54 C178.857,144.18 181.738,145.262 183.175,142.92 L183.175,140.937 C184.083,140.937 184.98,141.3 185.518,140.4 C176.875,133.74 186.415,123.125 182.1,115.02 C182.275,113.037 184.62,107.997 182.46,105.84 L182.46,105.302 C182.275,97.92 185.693,92.88 183.535,85.322 L184.433,86.22 C185.693,85.682 184.62,84.237 184.98,83.34 C214.318,116.817 249.775,136.62 290.098,145.625 C294.415,146.162 297.655,143.642 300,139.502 C294.96,133.38 290.635,124.745 287.04,120.057 C287.578,120.42 287.94,119.697 288.115,119.522 C285.42,119.345 284.698,112.5 283.263,109.082 C322.315,133.017 366.055,146.162 406.562,167.227 C422.578,179.277 435.538,195.665 445.44,213.125 C444.355,219.237 451.738,218.525 450.665,224.825 C451.562,227.157 453.545,225.897 455.342,226.26 C459.298,221.582 463.622,218.525 469.2,216.357 C475.138,216.182 481.445,217.977 483.418,223.74 C489.54,241.2 482.345,261.182 466.68,270.362 z M467.04,270.185" fill="#FFECDC"/>
    <path d="M473.515,250.02 C472.618,250.02 471.358,248.223 470.82,250.02 L465.245,247.138 C457.675,248.223 460.557,264.785 452.46,253.8 C449.755,249.483 454.443,246.065 453.72,241.738 C459.845,236.7 460.38,222.843 471.905,225.898 C475.497,232.92 466.143,233.28 464.16,238.145 C469.738,239.22 477.655,243.545 473.515,250.02 z M473.515,250.02" fill="#000000"/>
    <path d="M467.218,206.465 L468.663,206.465 L468.663,207.003 L467.218,207.003 z" fill="#FFFFFF"/>
    <path d="M463.8,238.145 L465.245,238.145 L465.245,238.682 L463.8,238.682 z" fill="#FFFFFF"/>
    <path d="M458.76,210.057 L458.223,209.523 L456.777,210.78 C445.078,184.325 421.855,155.165 391.798,145.988 C357.598,132.305 322.675,119.698 290.995,100.077 C285.595,97.022 280.02,89.463 272.638,91.983 L269.755,94.678 C270.655,95.225 270.302,96.123 270.478,97.022 L269.395,98.28 C276.055,106.025 276.777,118.085 280.557,127.618 C280.918,129.062 282.363,130.137 281.818,131.943 C267.06,129.6 252.655,121.865 238.8,114.298 C220.978,102.238 202.793,87.655 190.195,70.38 C190.195,69.483 189.482,68.038 190.743,67.5 C186.603,67.325 183.898,61.738 179.58,64.805 C176.163,70.38 177.423,77.763 176.338,83.878 C173.095,98.105 171.835,109.805 172.735,125.645 C158.878,106.2 148.263,80.995 151.318,57.238 C154.013,45.723 162.655,34.56 173.28,27.9 C196.855,18.72 224.943,17.638 252.48,18.898 C338.515,34.023 433.018,100.263 456.603,188.818 C457.675,195.84 458.397,203.945 459.12,210.42 z M458.76,210.057" fill="#CACBCC"/>
    <path d="M398.642,218.165 C386.758,211.865 374.16,208.085 360.302,206.28 C354.355,204.307 347.158,205.02 341.397,202.137 C338.34,199.62 332.402,194.943 334.737,189.728 C342.48,180.538 355.978,180.538 366.24,180.723 C373.622,182.345 380.098,185.762 386.943,189.728 C393.242,196.562 396.3,205.02 403.495,211.68 C403.858,215.098 400.615,216.72 398.642,218.165 z M398.642,218.165" fill="#000000"/>
    <path d="M397.383,263.34 C393.242,261.905 384.775,262.977 383.165,257.762 C387.48,255.967 395.938,257.227 397.383,263.34 z M397.383,263.34" fill="#000000"/>
    <path d="M393.057,75.605 L394.503,75.605 L394.503,76.142 L393.057,76.142 z" fill="#FFFFFF"/>
    <path d="M393.057,271.085 C390.362,272.345 389.462,268.74 387.48,267.665 L387.48,264.785 C390.362,266.22 394.862,264.6 396.122,268.925 C396.66,270.723 394.677,271.26 393.242,271.085 z M393.057,271.085" fill="#000000"/>
    <path d="M345.362,193.145 C355.262,187.022 370.557,188.28 379.922,194.042 L387.12,203.048 C373.622,198.905 359.755,195.665 345.362,193.32 z M345.362,193.145" fill="#CACBCC"/>
    <path d="M364.795,262.442 C356.875,257.04 353.642,242.1 340.86,246.787 C333.478,248.047 328.438,255.78 321.24,252.725 C319.258,244.62 328.622,243.545 332.762,239.042 C341.22,235.625 350.938,238.145 357.422,242.997 C363.72,247.325 365.88,253.447 369.658,258.837 C369.12,261.182 367.325,264.237 364.795,262.442 z M364.795,262.442" fill="#000000"/>
    <path d="M350.215,376.747 C347.88,380.342 345,379.268 342.295,376.925 C335.995,372.608 341.942,368.105 342.842,363.428 C347.52,344.523 332.402,333.72 322.5,320.948 L315.302,313.203 C327.003,315 334.375,330.128 344.462,337.325 C351.3,347.228 355.8,361.983 350.04,373.868 L350.04,376.747 z M350.215,376.747" fill="#000000"/>
    <path d="M336.358,659.345 C330.958,663.847 320.703,663.487 314.755,660.605 C309.54,648.73 328.8,644.59 321.24,632.345 L322.315,624.425 C329.698,621.727 337.255,619.385 345.723,619.385 C350.215,625.682 351.835,634.502 350.215,642.97 C348.603,649.805 342.843,656.65 336.543,659.345 z M336.358,659.345" fill="#FFECDC"/>
    <path d="M341.035,608.048 C334.375,610.742 325.558,609.13 319.443,612.91 C316.378,607.685 318.36,602.648 315.655,597.423 C322.315,593.468 330.595,593.643 336.543,588.603 C341.583,592.568 339.96,601.2 342.48,606.603 z M341.035,608.048" fill="#A6BFCB"/>
    <path d="M312.422,583.925 C309.18,555.302 297.12,530.645 291.895,502.745 C289.737,499.325 287.94,494.103 283.438,493.028 C282.003,494.825 279.297,492.48 278.575,495.185 C291.72,541.445 304.318,585.548 309.355,635.225 C303.242,639.19 295.675,639.903 288.3,640.625 C236.455,642.783 180.655,649.99 136.015,624.425 C135.477,612.188 141.415,600.665 141.777,588.068 C145.02,584.825 143.935,579.247 145.02,576.005 C155.82,543.242 168.057,511.2 184.083,480.43 C184.98,483.3 187.675,485.283 190.557,487.265 C197.04,489.425 193.975,481.143 200.098,481.505 C201.533,479.345 202.443,477.363 204.415,475.568 C209.102,487.443 210.175,500.4 214.677,511.925 C210,516.425 203.155,521.29 203.878,528.3 C201.357,536.22 215.938,541.807 207.655,547.208 C204.775,550.987 203.7,555.128 201.357,559.268 C199.375,562.51 195.057,566.103 195.958,571.328 L201.533,575.283 C206.932,567.55 212.695,559.805 219.54,552.423 C222.238,550.987 223.682,555.665 227.1,553.682 C232.5,562.148 234.482,575.47 245.995,577.987 C247.977,576.728 247.443,573.487 246.542,571.865 C241.68,563.408 238.075,554.405 233.397,545.948 C237.715,539.103 240.958,529.745 236.455,521.825 C230.88,517.51 234.298,512.285 237.715,507.783 C243.115,500.4 247.977,492.13 252.48,484.385 C258.595,484.023 260.938,494.288 267.598,488.165 C270.478,483.488 281.095,486.728 278.575,478.808 C305.763,505.625 320.517,541.62 332.577,577.09 C327.362,581.583 319.258,581.768 312.237,583.565 z M312.422,583.925" fill="#A6BFCB"/>
    <path d="M312.422,858.965 C298.74,861.485 282.54,861.308 269.58,857.345 C263.642,853.028 268.495,848.525 267.783,842.763 C267.422,835.205 278.397,833.408 276.603,826.388 C289.56,829.99 307.198,816.485 312.783,835.39 C314.755,842.413 321.962,856.27 312.422,858.79 z M312.422,858.965" fill="#A6BFCB"/>
    <path d="M294.238,658.085 C292.08,655.568 295.323,653.047 293.515,650.527 C295.86,647.285 300,651.065 301.62,648.37 L303.955,648.905 C304.318,654.667 297.295,654.667 294.238,658.085 z M294.238,658.085" fill="#AA9180"/>
    <path d="M278.223,359.647 C260.4,377.823 232.863,376.388 211.62,366.485 C193.262,356.943 179.755,337.685 176.163,317.88 C181.915,311.582 191.095,317.705 198.663,316.983 C229.258,320.585 258.955,325.8 290.098,320.948 C295.497,322.92 294.96,329.58 293.878,334.267 C289.56,343.085 285.78,351.905 278.223,359.825 z M278.223,359.647" fill="#000000"/>
    <path d="M299.815,806.592 L297.655,814.862 C295.86,813.067 294.775,816.67 292.977,816.485 C269.58,813.427 246.895,822.07 225.302,813.602 C224.755,780.85 221.512,748.085 222.96,715.147 C235.917,708.487 228.897,692.47 233.397,681.845 C236.095,681.122 238.975,680.947 241.317,678.79 C257.52,678.427 283.975,676.807 300.897,667.987 C301.435,714.61 297.12,760.87 300,806.592 z M299.815,806.592" fill="#EBCBAF"/>
    <path d="M287.04,112.685 L287.04,111.777 L285.595,111.962 L285.595,112.685 z M287.04,112.685" fill="#000000"/>
    <path d="M249.415,363.067 C232.137,364.325 210.897,359.647 198.477,345.605 C193.075,338.945 188.212,331.925 187.5,323.467 C206.397,328.682 226.015,331.925 246.542,333.007 C258.78,332.822 269.395,334.98 281.095,333.545 C275.517,347.762 261.835,356.405 249.415,363.067 z M249.415,363.067" fill="#F7938F"/>
    <path d="M285.235,661.865 C280.557,662.588 276.415,664.745 271.738,665.107 C271.738,660.43 272.1,656.825 270.118,653.047 C275.342,651.25 279.658,650.528 285.057,650.703 z M285.235,661.865" fill="#AA9180"/>
    <path d="M262.735,476.825 C252.295,468.183 246.542,456.122 238.975,446.22 L246.542,440.47 C254.815,449.463 259.503,461.348 264.717,472.325 C264.717,474.12 264.18,475.568 262.735,476.825 z M262.735,476.825" fill="#B5CBAA"/>
    <path d="M263.28,666.542 C258.057,667.45 252.12,667.265 246.543,667.45 C246.543,662.762 245.46,658.447 247.803,653.407 C253.38,653.585 258.595,652.685 264.54,653.77 C262.022,657.362 263.818,662.227 263.28,666.727 z M263.28,666.542" fill="#AA9180"/>
    <path d="M252.12,396.005 C249.415,394.56 246.72,392.94 245.635,390.245 L245.46,384.12 C247.255,383.222 249.6,384.12 251.035,385.567 C252.842,388.447 257.88,393.847 252.12,396.005 z M252.12,396.005" fill="#000000"/>
    <path d="M258.595,857.705 C246.357,860.225 237.54,854.647 226.915,852.665 L226.378,823.867 C238.075,825.487 251.035,828.37 262.735,825.85 C258.595,836.102 256.075,845.645 258.595,857.53 z M258.595,857.705" fill="#868789"/>
    <path d="M223.135,510.303 C218.458,496.27 214.678,482.04 211.798,467.11 C218.818,462.608 223.858,454.503 231.055,451.808 C236.28,460.8 250.138,470.527 241.495,481.143 C237.003,491.405 229.258,500.4 222.96,510.128 z M223.135,510.303" fill="#A6BFCB"/>
    <path d="M234.657,669.062 C226.2,674.462 214.852,671.23 206.582,667.628 L206.932,652.685 C214.502,653.77 222.422,653.047 230.342,653.047 C231.602,654.13 236.455,650.342 235.917,654.13 C237.002,659.707 233.397,664.385 234.657,669.062 z M234.657,669.062" fill="#F0C365"/>
    <path d="M227.46,394.2 C224.58,395.107 222.772,391.865 221.875,390.245 C221.162,387.002 222.06,384.307 223.682,381.787 C226.377,380.887 227.822,382.862 229.257,384.667 C230.88,387.9 229.98,393.125 227.46,394.385 z M227.46,394.2" fill="#000000"/>
    <path d="M224.58,539.287 C222.06,541.62 218.642,538.027 216.112,537.49 C214.317,534.785 213.057,531.727 214.502,529.022 C216.475,525.245 220.255,523.447 224.395,522.362 C231.777,525.43 225.477,534.062 224.755,539.287 z M224.58,539.287" fill="#F0C365"/>
    <path d="M209.637,453.602 C205.675,458.642 201.357,463.682 197.402,468.545 C197.755,458.642 199.923,444.425 210.897,439.022 C211.435,439.022 212.695,439.022 212.88,438.125 C225.477,443.165 212.52,448.74 209.637,453.79 z M209.637,453.602" fill="#B5CBAA"/>
    <path d="M220.615,705.967 C220.44,707.227 218.28,706.328 217.022,706.69 C216.66,697.325 214.14,690.302 215.575,680.585 L222.597,681.845 C221.875,689.765 222.06,698.222 220.44,705.967 z M220.615,705.967" fill="#EBCBAF"/>
    <path d="M222.598,703.085 L224.033,703.085 L224.033,703.623 L222.598,703.623 z" fill="#FFFFFF"/>
    <path d="M209.102,391.865 C206.22,393.3 204.6,389.883 202.792,388.448 C202.442,383.223 205.322,379.62 208.192,375.665 C211.075,374.765 212.88,376.387 214.677,378.182 C214.852,383.408 212.158,387.54 209.102,391.68 z M209.102,391.865" fill="#000000"/>
    <path d="M216.835,852.305 C213.243,850.507 207.48,852.13 203.34,853.925 C199.56,852.305 191.64,854.647 188.038,851.767 C186.952,839.53 184.62,827.832 175.44,819.19 C188.575,816.307 200.46,823.693 215.575,819.55 C218.095,829.805 217.198,842.412 216.66,852.13 z M216.835,852.305" fill="#868789"/>
    <path d="M214.14,810.733 C198.663,813.068 184.432,808.028 168.955,808.028 C152.217,761.405 142.863,710.108 141.055,658.807 C150.78,660.605 160.86,668.35 172.023,670.323 C182.637,675.37 197.217,673.028 206.758,679.325 L207.12,697.87 L209.102,698.408 C207.295,699.307 207.655,701.103 207.655,702.91 L209.102,703.448 L208.555,703.448 C206.583,707.588 208.74,712.628 212.335,714.61 C211.798,747.188 215.575,779.59 214.14,810.908 z M214.14,810.733" fill="#EBCBAF"/>
    <path d="M195.235,664.923 C192.002,665.645 188.212,664.21 184.62,663.663 L186.415,650.528 L195.595,651.613 L195.235,665.108 z M195.235,664.923" fill="#AA9180"/>
    <path d="M179.033,246.24 C171.3,240.477 163.915,234.18 153.478,239.765 C147.353,241.025 147.003,256.68 138.898,246.962 C138.175,243.545 140.155,239.042 142.863,236.337 C147.9,229.14 156.533,229.862 163.74,228.965 C169.853,232.382 187.675,237.245 179.033,246.24 z M179.033,246.24" fill="#000000"/>
    <path d="M185.343,469.63 C184.795,469.63 184.083,469.443 183.898,468.72 C183.898,467.46 184.98,467.285 185.88,467.46 C184.98,467.823 185.343,468.72 185.343,469.63 z M185.343,469.63" fill="#FFFFFF"/>
    <path d="M172.735,197.822 C169.14,194.942 166.798,196.387 162.655,196.025 C147.9,195.117 134.395,200.702 120.537,203.76 C119.452,205.567 116.572,208.8 113.515,206.465 C111.182,203.945 107.04,201.962 108.3,197.46 C113.155,191.885 115.675,182.158 124.14,178.925 C131.512,170.283 142.675,168.125 152.94,169.923 C163.017,173.525 171.66,184.14 174.54,194.22 L172.557,197.822 z M172.735,197.822" fill="#000000"/>
    <path d="M176.162,662.228 C170.762,659.708 165.175,657.725 159.053,656.465 C162.295,653.77 161.22,648.545 160.312,644.95 C165.363,647.47 170.938,647.11 177.423,649.083 C176.875,653.408 175.44,657.55 176.162,662.228 z M176.162,662.228" fill="#AA9180"/>
    <path d="M161.758,501.66 C158.7,505.8 160.137,509.043 156.357,512.823 C157.618,516.25 154.738,516.425 153.838,519.307 L154.375,519.845 L152.94,521.29 C152.94,524.17 150.958,528.3 149.698,531.905 C147.353,533.165 148.613,535.508 147.178,536.943 L147.715,537.49 C140.342,551.71 136.2,567.003 131.512,581.943 C123.595,578.525 114.775,574.922 109.56,567.188 C124.14,533.525 146.095,502.383 172.558,475.742 C169.853,484.56 164.277,492.665 161.583,501.485 z M161.758,501.66" fill="#A6BFCB"/>
    <path d="M178.135,853.028 C163.193,852.49 150.958,852.13 136.015,851.768 C139.072,842.05 146.818,834.307 154.56,826.747 C160.312,825.487 169.852,815.585 172.735,827.648 C177.598,834.845 176.875,845.108 178.135,853.028 z M178.135,853.028" fill="#A6BFCB"/>
    <path d="M128.095,192.06 L123.417,192.96 C127.197,185.938 135.84,181.62 143.397,179.103 C148.075,179.278 152.94,177.48 157.442,180.898 L161.035,185.225 C150.78,187.383 137.637,186.485 128.095,192.06 z M128.095,192.06" fill="#CACBCC"/>
    <path d="M138.897,324.365 L139.795,324.902 C132.237,331.747 120.175,343.085 125.4,356.767 C126.835,357.842 125.762,360 126.835,360.908 C126.3,362.345 124.492,361.62 123.417,361.807 C119.277,360.185 118.555,355.682 116.22,352.802 C114.237,343.263 115.312,335.165 121.26,328.145 C130.8,316.807 145.557,315.723 153.3,303.487 C155.995,302.228 153.662,305.82 155.46,306.367 C156.182,316.26 143.935,318.603 138.72,324.18 z M138.897,324.365" fill="#000000"/>
    <path d="M149.872,653.223 C147.003,650.888 141.952,649.805 140.692,646.388 C142.137,641.885 137.997,640.088 139.072,635.948 L151.132,641.885 C150.595,645.665 152.393,650.343 149.872,653.408 z M149.872,653.223" fill="#AA9180"/>
    <path d="M139.795,66.777 C137.275,71.817 143.575,82.265 132.423,80.46 L131.875,81.905 C128.818,79.022 128.458,84.6 125.4,84.062 C99.472,93.602 77.335,115.38 62.577,139.503 C62.04,144.18 57.54,147.423 54.835,151.378 C48.897,163.438 42.06,175.86 37.372,187.745 C39.717,136.445 73.915,83.7 122.158,61.737 C127.92,60.117 133.495,55.625 139.62,57.237 C139.62,60.477 136.738,64.257 139.795,66.962 z M139.795,66.777" fill="#CACBCC"/>
    <path d="M121.62,262.628 C116.933,264.237 111.183,264.062 107.577,260.283 C105.42,257.94 107.755,257.04 109.56,255.78 C116.035,256.505 125.215,250.742 128.633,257.763 C129.893,262.978 123.418,259.56 121.62,262.628 z M121.62,262.628" fill="#000000"/>
    <path d="M126.475,251.28 C121.26,251.64 114.775,248.585 108.838,250.917 C102.353,249.308 96.415,260.283 91.915,252.363 C100.38,246.603 109.56,241.2 120.713,244.258 C122.88,246.24 127.022,247.137 126.475,251.103 z M126.475,251.28" fill="#000000"/>
    <path d="M125.04,607.862 C117.655,605.342 106.132,603.008 100.195,594.365 L106.317,576.727 C110.272,589.862 140.155,585.547 126.475,604.443 L125.04,608.047 z M125.04,607.862" fill="#A6BFCB"/>
    <path d="M128.818,649.083 C121.435,651.065 113.877,649.268 107.755,646.925 C101.817,642.07 95.88,637.745 96.24,629.463 C96.952,622.09 98.935,615.43 105.057,610.205 C110.82,617.05 128.632,614.523 123.595,628.028 C131.512,631.983 129.355,642.07 128.995,649.083 z M128.818,649.083" fill="#FFECDC"/>
    <path d="M27.832,241.025 C26.932,240.128 25.86,239.58 26.397,238.505 L31.26,234.902 C30,231.122 24.6,227.345 27.48,223.565 C30,222.665 31.075,225.898 33.057,226.982 C33.417,231.66 40.44,234.18 38.817,238.868 C35.4,239.765 31.26,239.943 27.655,241.2 z M27.832,241.025" fill="#000000"/>
    <path d="M136.553,301.865 C136.553,322.745 119.638,339.845 98.575,339.845 C77.695,339.845 60.595,322.92 60.595,301.865 C60.595,280.988 77.52,263.888 98.575,263.888 C119.638,263.888 136.553,280.8 136.553,301.865 z M136.553,301.865" fill="url(#Gradient_2)"/>
    <path d="M418.263,311.583 C418.263,332.648 401.163,349.56 380.283,349.56 C359.395,349.56 342.295,332.648 342.295,311.583 C342.295,290.528 359.22,273.603 380.283,273.603 C401.163,273.603 418.263,290.528 418.263,311.583 z M418.263,311.583" fill="url(#Gradient_3)"/>
    <path d="M949.083,297.362 C944.943,297.725 940.45,302.762 937.023,298.985 C932.705,299.882 930.722,293.76 926.405,294.845 C919.023,304.56 919.21,316.982 910.927,326.163 C908.77,333.182 901.562,338.408 899.227,345.42 C871.68,376.562 837.13,403.565 797.167,414.005 C779.16,421.387 760.088,422.285 739.745,422.1 C731.64,426.065 743.7,448.387 725.528,440.47 C723.545,441.367 722.648,439.56 721.388,438.487 L722.285,427.325 C723.182,427.325 724.083,427.325 724.62,426.425 C723.72,424.63 720.477,421.562 718.145,420.487 C668.28,417.06 622.198,401.767 583.32,371.522 C547.5,336.788 539.405,285.477 546.963,236.162 C564.785,187.92 615.185,174.425 655.86,158.945 C679.98,150.84 707.88,152.46 733.8,152.46 L735.057,153.905 C748.203,150.477 762.96,156.24 774.667,155.165 C787.802,158.397 798.965,159.12 812.648,163.622 C821.465,165.42 828.847,170.645 837.305,172.617 C863.76,182.157 889.503,199.082 909.307,221.582 C917.403,235.987 925.87,251.102 925.682,268.38 C929.287,270.362 929.648,276.3 934.862,273.78 C935.585,268.565 937.208,262.977 943.145,259.56 C946.925,258.125 951.787,256.505 956.29,258.125 C962.763,264.425 962.227,275.585 960.245,283.867 C957.362,288.905 954.845,295.02 949.443,297.54 z M949.083,297.362" fill="#FFECDC"/>
    <path d="M939.005,289.805 C937.568,291.24 935.763,289.62 934.862,288.36 C934.503,281.885 938.468,273.068 945.128,269.103 L947.11,269.103 C946.925,271.807 945.128,273.78 943.682,276.122 C945.665,277.207 949.805,273.418 951.25,276.485 C950.165,283.505 937.568,279.902 938.828,289.62 z M939.005,289.805" fill="#000000"/>
    <path d="M928.925,239.405 C922.265,228.068 920.282,214.385 908.77,206.102 C912.9,193.145 906.24,181.26 905.165,168.663 C900.84,158.76 898.867,147.783 892.567,138.78 C891.122,138.78 889.325,138.602 888.427,140.4 C893.467,149.042 892.92,160.205 897.97,168.837 C899.227,177.665 898.867,188.105 899.405,196.387 L897.06,196.387 C885.722,187.197 873.847,178.925 861.425,172.443 C863.76,151.562 863.222,127.978 852.607,110.88 C850.262,110.342 848.827,111.603 848.467,113.585 C855.487,131.583 853.505,147.783 851.522,167.04 C838.925,163.438 825.245,158.223 812.647,153.72 C806.522,151.562 799.687,150.477 793.565,149.042 C799.325,131.045 796.26,107.1 791.942,90 C791.405,88.925 789.96,89.825 789.062,89.463 L787.627,90.897 C788.525,109.257 787.987,129.238 783.662,146.337 L784.56,147.245 C766.025,145.8 746.767,142.382 726.787,143.28 C724.805,126.905 728.047,104.042 734.882,86.942 C734.522,86.582 734.345,86.045 733.447,86.397 C728.76,91.085 732.187,99.902 726.787,104.042 C723.72,116.64 719.942,129.062 717.782,142.022 C684.12,139.503 652.265,147.245 622.382,159.298 C628.32,129.6 649.385,100.8 677.285,87.48 C679.62,87.655 681.065,86.757 682.137,84.96 C683.222,79.923 677.647,80.995 674.942,79.022 C669.365,81.72 663.602,84.425 658.38,88.38 C655.86,93.965 649.745,91.445 648.662,97.557 C643.262,103.505 635.88,106.925 633.36,113.945 C625.987,124.56 620.04,136.982 616.445,149.405 C614.277,156.24 619.862,164.882 609.062,164.522 C598.622,171.72 586.2,175.147 576.3,181.807 C562.977,191.7 550.917,202.5 543.36,217.443 C544.082,193.682 557.762,174.238 568.202,154.62 C574.677,143.643 584.042,137.345 589.98,126.182 L591.425,126.182 C611.757,103.857 639.307,90.185 665.762,77.762 C688.985,69.482 714.727,68.76 739.922,68.76 C755.225,68.76 770.342,71.64 786.542,73.985 L787.08,73.438 C790.86,75.78 797.705,75.057 802.022,78.125 C820.02,82.442 833.165,89.277 849.18,98.817 C852.607,98.457 855.487,103.32 859.267,103.682 C887.705,124.022 910.742,149.22 919.745,182.52 C924.247,200.88 929.287,219.785 928.387,239.405 z M928.925,239.405" fill="#CACBCC"/>
    <path d="M910.928,824.053 C881.405,836.825 845.763,841.328 815.343,827.833 C805.988,824.228 801.845,814.325 801.845,804.97 L801.845,802.09 C825.245,816.308 857.823,823.33 884.825,813.068 C887.345,811.27 888.603,812.705 891.845,811.445 C898.868,808.925 904.63,803.35 911.825,801.368 C915.068,799.21 915.78,796.69 919.56,795.605 C920.82,802.628 920.47,810.908 917.95,817.393 L911.103,823.868 z M910.928,824.053" fill="#F0C365"/>
    <path d="M812.285,797.763 C803.828,795.245 801.485,787.148 800.04,779.59 C800.4,754.21 808.145,730.263 826.865,713.35 C831.542,701.29 822.362,686.523 826.143,673.203 C827.763,670.323 827.763,666.193 830.107,663.125 C830.645,673.028 829.922,684.55 831.542,693.183 C827.763,695.353 830.47,699.668 830.282,703.085 C834.6,713.888 843.427,703.448 849.903,702.725 C854.227,699.483 859.98,694.268 859.63,689.043 L863.76,693.37 L864.307,692.47 C892.745,714.785 906.065,748.085 912.55,782.285 L915.245,784.268 C888.79,809.288 845.05,813.068 812.46,797.588 z M812.285,797.763" fill="#FFE18F"/>
    <path d="M905.887,351.367 L906.962,351.367 L906.962,352.265 L905.887,352.265 z" fill="#FFFFFF"/>
    <path d="M899.58,358.38 L901.025,358.38 L901.025,359.288 L899.58,359.288 z" fill="#FFFFFF"/>
    <path d="M882.48,274.503 C877.803,275.225 872.228,274.325 867.9,272.705 C867.55,271.26 867.9,270 869.345,269.102 C874.21,267.48 880.508,268.38 884.648,271.807 C885.185,273.78 884.103,273.78 882.665,274.503 z M882.48,274.503" fill="#000000"/>
    <path d="M877.802,284.042 C875.47,284.042 873.125,284.405 871.68,282.783 L873.125,281.348 L871.68,279.902 C873.125,279.005 877.443,278.28 879.247,280.625 C879.61,281.7 879.062,283.32 877.802,284.22 z M877.802,284.042" fill="#000000"/>
    <path d="M860.342,217.628 C852.607,212.762 845.762,203.223 836.405,201.602 C826.142,202.137 814.98,197.647 808.505,207.003 C805.8,207.363 804.18,207.003 804.005,204.482 C805.087,199.257 812.285,196.738 817.325,194.22 C833.34,188.28 849.902,195.665 861.24,208.985 C861.24,211.68 864.482,215.283 860.527,217.443 z M860.342,217.628" fill="#000000"/>
    <path d="M869.523,716.593 C866.64,717.852 865.02,714.61 863.945,713.71 C863.585,712.265 861.787,709.385 864.482,709.023 C867.188,708.125 868.807,709.745 870.968,711.005 C871.865,712.45 872.588,716.23 869.523,716.593 z M869.523,716.593" fill="#000000"/>
    <path d="M859.083,723.253 C854.943,721.807 853.683,718.028 853.32,714.062 C856.563,711.905 860.343,714.61 861.788,717.49 C861.788,719.825 862.148,723.603 858.905,723.427 z M859.083,723.253" fill="#000000"/>
    <path d="M858.545,688.145 C857.648,686.71 856.388,686.347 854.943,686.71 C855.128,677.705 854.043,667.987 855.303,659.17 L856.388,659.17 C857.823,669.97 858.545,676.085 858.37,688.145 z M858.545,688.145" fill="#FFE18F"/>
    <path d="M852.782,648.182 C849.005,647.648 845.948,655.39 842.345,649.805 C833.34,652.325 823.263,649.268 818.585,642.423 C818.407,633.603 812.285,631.983 813.182,622.988 L813.182,621.005 C823.622,619.023 832.987,614.523 843.068,612.003 C854.405,619.923 860.528,635.948 852.782,648.37 z M852.782,648.182" fill="#FFECDC"/>
    <path d="M838.925,271.26 C831.367,272.88 822.362,273.068 818.585,264.6 C820.205,252.9 805.987,247.325 807.607,236.7 L810.127,235.263 C814.082,238.32 814.442,243.905 818.222,247.685 C823.447,244.62 829.2,239.22 835.682,243.183 C841.982,247.5 845.762,255.058 844.502,262.628 C842.52,265.497 842.88,269.638 838.74,271.26 z M838.925,271.26" fill="#000000"/>
    <path d="M847.208,729.005 C843.068,726.122 840.907,721.807 842.88,717.13 C846.122,714.062 847.568,719.288 849.903,720.548 C850.625,723.965 854.405,729.55 847.208,729.005 z M847.208,729.005" fill="#000000"/>
    <path d="M838.388,696.612 C836.943,684.005 839.463,671.768 840.363,660.968 L845.948,659.345 L846.485,689.405 L848.828,691.747 C845.948,694.805 842.168,695.703 838.388,696.612 z M838.388,696.612" fill="#ECEDED"/>
    <path d="M834.425,364.688 C833.525,361.982 829.385,364.862 829.385,361.26 C832.803,352.442 826.143,345.605 821.465,339.845 L819.12,339.845 C811.925,335.342 803.468,331.387 797.88,326.162 C802.568,323.105 808.505,328.32 813.36,329.405 C826.328,332.46 836.22,343.085 839.825,355.507 C842.52,358.74 837.843,361.445 837.843,363.965 C836.943,365.225 835.508,364.503 834.425,364.688 z M834.425,364.688" fill="#000000"/>
    <path d="M834.425,602.823 C825.968,603.905 819.668,609.307 810.84,609.482 C802.208,570.967 796.445,529.922 788.165,490.507 C784.023,487.08 781.865,482.762 775.568,484.56 C773.585,489.785 777.188,496.445 777.9,502.745 C786.182,543.79 791.943,586.085 801.307,626.583 C804.728,637.568 807.245,646.925 810.303,658.085 L807.423,659.53 C792.305,661.328 777.003,659.53 761.163,657.362 C756.66,639.902 756.66,621.367 754.503,602.11 C753.603,552.422 752.705,505.625 751.807,453.242 C800.763,486.542 825.605,538.75 839.288,592.022 C839.288,596.162 840.363,602.47 834.425,602.647 z M834.425,602.823" fill="#EBCBAF"/>
    <path d="M834.247,734.765 C823.985,731.172 832.628,722.89 831.905,716.767 C833.34,714.425 836.045,714.97 838.925,715.682 C841.445,720.547 837.305,726.485 838.387,732.607 C837.305,734.042 836.045,734.765 834.247,734.765 z M834.247,734.765" fill="#000000"/>
    <path d="M813.008,69.482 C810.128,70.917 805.988,68.397 802.92,66.777 C794.648,65.702 786.72,62.638 778.8,63.182 C776.64,61.377 774.12,60.84 773.223,57.782 C767.823,50.575 764.765,40.682 767.823,31.865 C770.343,25.742 772.325,19.257 777.54,14.755 C799.688,22.325 818.408,44.103 813.008,69.658 z M813.008,69.482" fill="#CACBCC"/>
    <path d="M818.76,703.985 C808.505,719.463 794.463,733.145 792.48,751.505 C741.005,772.93 678.905,762.305 631.388,740.353 C632.285,730.088 634.443,718.388 634.258,706.69 L636.24,703.085 C638.048,691.025 640.742,679.503 641.465,667.265 C649.2,661.505 655.86,671.768 662.52,666.005 L663.068,666.005 L661.62,668.165 C670.625,667.45 678.545,669.247 687.177,669.247 L687.177,667.803 C687.725,667.803 688.085,668.35 688.448,668.71 L690.78,666.543 C688.985,649.083 690.968,629.648 691.865,613.807 C707.705,618.848 726.24,623.71 743.165,619.023 C744.6,633.068 746.943,647.285 747.48,661.143 C758.828,670.508 775.927,665.283 789.247,670.323 C797.168,669.247 809.765,668.525 818.408,667.803 C814.443,675.548 820.927,680.05 818.223,687.97 L819.668,688.867 C817.148,693.37 821.64,698.77 819.12,704.17 z M818.76,703.985" fill="#C09F8F"/>
    <path d="M799.862,860.225 C787.627,860.772 774.482,863.29 763.32,861.845 C762.607,852.13 762.96,839.53 772.685,833.585 C774.667,832.685 777.002,831.425 779.707,831.972 C789.785,839.708 802.207,845.645 806.885,858.068 z M799.862,860.225" fill="#D7ADD0"/>
    <path d="M784.023,296.28 C775.927,302.587 765.128,302.762 755.948,299.522 C744.785,296.28 740.82,284.943 737.94,275.225 C732.54,273.068 727.5,276.3 723.905,278.467 C722.1,287.285 714.903,295.927 705.898,298.448 C696.905,299.522 688.985,300.78 681.24,295.38 C672.422,288.545 669.18,276.845 669.54,266.045 C672.06,257.228 677.648,248.048 686.64,245.527 C697.802,245.527 710.04,248.048 717.06,259.022 L722.823,268.565 C730.02,266.045 741.367,271.445 739.56,259.2 C744.062,249.482 755.948,246.065 766.025,246.065 C776.28,248.222 784.385,256.318 790.323,265.147 C795.185,275.948 794.463,288.182 783.848,296.28 z M784.023,296.28" fill="#000000"/>
    <path d="M795.547,542.345 L796.982,542.345 L796.982,542.882 L795.547,542.882 z" fill="#FFFFFF"/>
    <path d="M786.542,350.82 C786.005,350.46 785.645,349.922 785.107,349.922 C784.2,352.628 786.367,353.165 785.282,356.405 C783.662,360 783.125,363.78 780.42,367.022 C766.2,385.205 744.6,393.662 722.647,391.142 C703.027,387.9 680.702,374.405 675.477,353.34 C673.505,345.245 669.54,331.2 677.822,325.262 C707.52,335.527 744.785,339.307 776.825,330.477 C780.967,331.925 784.745,333.007 786.367,337.325 C787.08,341.64 784.745,345.78 785.645,349.385 L787.08,347.227 C786.72,348.125 786.182,349.2 786.542,350.82 z M786.542,350.82" fill="#000000"/>
    <path d="M773.945,289.98 C768.545,293.223 762.245,292.862 756.485,290.88 C748.74,285.478 744.6,276.845 746.405,267.305 C745.682,258.487 754.503,257.577 760.263,254.522 C765.84,253.622 771.425,254.882 775.02,258.3 C783.663,265.497 787.265,284.765 774.12,289.98 z M773.945,289.98" fill="#FFECDC"/>
    <path d="M748.38,378.182 C731.28,385.743 710.04,381.788 696.183,370.625 C687.9,361.445 682.685,351.005 683.585,337.863 C694.2,339.668 705.898,342.363 717.245,343.085 C736.318,344.523 757.92,347.94 776.825,341.103 C777.188,357.12 761.523,371.523 748.203,378.182 z M748.38,378.182" fill="#F7938F"/>
    <path d="M738.125,58.32 C734.707,50.762 737.227,41.582 742.08,35.645 C746.045,28.622 753.965,24.845 760.625,20.342 C754.14,32.217 758.467,48.242 763.682,58.857 C756.3,59.22 746.405,60.117 738.125,58.145 z M738.125,58.32" fill="#CACBCC"/>
    <path d="M726.787,47.158 L728.397,58.495 C719.58,59.042 709.14,60.665 700.322,60.118 C694.022,51.123 698.525,39.062 703.38,30.78 C717.96,16.738 736.865,10.263 756.845,9.903 C742.265,16.378 728.222,30.958 726.787,46.983 z M726.787,47.158" fill="#CACBCC"/>
    <path d="M750.185,860.585 C743.7,861.67 739.023,861.133 733.263,859.513 C730.205,848.35 732.54,837.188 730.568,825.85 C738.487,827.47 747.12,822.608 755.225,826.025 L762.783,826.747 C751.807,835.205 750,848.35 750.185,860.585 z M750.185,860.585" fill="#AA9180"/>
    <path d="M736.505,817.393 C733.8,816.307 728.945,817.208 728.222,813.965 L727.137,803.525 L747.665,804.61 C751.982,812.53 742.628,817.03 736.505,817.393 z M736.505,817.393" fill="#FFFFFF"/>
    <path d="M740.46,796.153 L726.425,794.893 L725.165,773.828 C727.138,773.828 728.398,772.93 730.02,771.67 C729.657,772.93 730.927,773.105 731.465,773.653 C734.345,773.828 736.68,773.29 738.487,772.03 C738.662,770.585 737.94,773.468 739.023,773.468 L740.46,771.485 C741.72,774.913 744.237,771.485 746.943,773.468 C743.525,780.487 751.982,795.245 740.282,796.153 z M740.46,796.153" fill="#FFECDC"/>
    <path d="M725.165,610.927 C714.005,609.667 703.38,607.51 692.94,604.443 C692.04,598.682 694.2,591.485 693.125,585.722 C695.107,584.287 695.107,580.682 696.005,578.7 C697.08,553.145 706.445,529.56 707.157,505.987 C712.023,487.08 713.468,466.387 722.285,448.925 C726.602,449.462 732.188,450.722 737.763,449.287 C740.46,503.642 738.847,554.227 742.802,608.047 C738.125,609.845 731.102,610.03 725.343,610.927 z M725.165,610.927" fill="#CACBCC"/>
    <path d="M703.203,289.267 C697.08,291.788 688.622,292.685 683.585,287.647 C682.862,281.163 675.477,277.557 676.2,270.723 C675.84,264.237 677.997,259.022 682.862,254.522 C690.42,249.482 699.6,253.985 706.085,258.125 C712.92,267.12 715.8,282.608 703.203,289.267 z M703.203,289.267" fill="#FFECDC"/>
    <path d="M720.665,858.253 C717.245,859.513 713.105,858.965 709.325,859.325 C707.345,846.552 701.045,834.845 692.04,825.665 C699.96,825.312 712.208,822.07 717.245,828.182 C717.422,838.633 720.477,847.812 720.665,858.253 z M720.665,858.253" fill="#AA9180"/>
    <path d="M714.902,816.307 C708.417,813.79 702.305,819.55 695.82,814.688 C694.56,812.168 695.107,808.565 695.107,805.682 L715.262,805.333 L714.902,816.485 z M714.902,816.307" fill="#FFFFFF"/>
    <path d="M694.023,797.05 C691.143,788.408 690.78,778.33 687.9,769.688 C689.708,769.325 693.125,770.41 694.922,768.965 C696.72,772.393 701.943,770.05 705,771.67 C718.145,768.253 708.78,786.788 713.818,793.085 C711.3,797.588 700.148,796.505 694.023,797.05 z M694.023,797.05" fill="#FFECDC"/>
    <path d="M697.802,489.425 C698.165,494.463 694.745,500.585 697.265,506.163 C694.023,509.765 695.108,515.343 694.023,519.668 C691.318,529.385 690.245,538.75 688.985,547.208 C685.918,553.33 688.085,561.25 684.483,568.263 C685.02,579.425 680.703,587.345 681.603,598.505 C678.545,604.63 679.443,613.263 678.545,620.283 C677.285,632.89 679.258,646.025 677.823,659.883 C660.898,658.807 643.263,657.91 627.423,653.77 C631.737,635.585 634.083,619.745 639.658,602.11 C642.9,590.585 648.3,578.888 649.023,566.825 L648.125,566.825 L648.125,564.845 C649.023,564.845 649.385,565.205 649.56,565.742 C650.46,564.845 650.645,563.945 651.005,562.863 C649.745,561.963 649.56,563.223 649.56,560.888 L650.46,559.99 C650.46,560.888 650.283,561.788 651.005,562.325 C652.978,560.888 651.543,557.648 652.978,555.85 L652.443,555.302 C656.045,548.28 658.565,539.463 661.085,531.182 C667.208,516.788 670.263,503.828 676.388,489.425 C674.043,487.443 672.96,483.125 669.18,482.588 C679.258,470.165 692.228,461.71 705.898,456.66 C705,468.37 700.682,478.623 698.34,489.785 z M697.802,489.425" fill="#EBCBAF"/>
    <path d="M684.12,61.925 L685.565,61.925 L685.565,62.823 L684.12,62.823 z" fill="#000000"/>
    <path d="M695.107,858.79 C678.182,857.705 656.583,862.93 639.845,858.427 C641.102,846.727 653.525,839.708 663.965,833.407 C669.54,831.612 675.302,828.008 681.425,829.63 C689.708,837.91 694.56,847.628 695.107,858.965 z M695.107,858.79" fill="#D7ADD0"/>
    <path d="M661.62,319.502 C647.762,329.405 628.505,329.765 619.14,346.865 C616.26,353.7 625.262,358.202 620.937,362.88 C616.62,362.167 615.537,357.12 613.74,353.887 L614.462,345.967 L615,346.865 C618.417,342.187 621.485,335.702 627.245,331.747 L626.7,331.2 C628.857,325.625 635.342,327.245 639.12,324.005 C640.567,327.245 644.16,324.005 646.68,323.827 C649.56,319.687 656.582,317.88 661.445,318.067 L661.445,319.502 z M661.62,319.502" fill="#000000"/>
    <path d="M654.96,71.465 L647.94,74.522 z M654.96,71.465" fill="#FFFFFF"/>
    <path d="M661.62,485.108 L663.065,485.108 L663.065,485.645 L661.62,485.645 z" fill="#FFFFFF"/>
    <path d="M634.62,574.023 C632.1,584.825 628.858,595.263 624.728,605.165 C619.14,602.285 613.018,600.488 607.617,596.348 C617.705,558.37 635.518,523.263 661.26,492.13 C650.645,519.845 641.825,545.225 634.62,574.023 z M634.62,574.023" fill="#EBCBAF"/>
    <path d="M649.385,201.603 C639.307,198.905 624.54,192.783 615.723,202.138 C611.758,205.38 608.525,211.865 604.023,214.385 C600.78,212.403 599.523,208.623 601.143,205.38 L601.68,204.845 C598.985,204.308 602.578,201.24 603.125,199.805 L607.978,195.303 L608.525,196.2 L610.497,194.043 L609.96,193.145 C617.52,189.728 627.06,184.325 635.88,189.18 C641.465,191.338 649.2,194.22 651.358,200.343 z M649.385,201.603" fill="#000000"/>
    <path d="M651.358,525.967 C650.82,528.662 652.265,523.622 652.802,522.362 C651.005,523.807 654.062,524.707 651.358,525.967 z M651.358,525.967" fill="#FFFFFF"/>
    <path d="M644.523,269.287 C640.568,273.78 634.62,275.4 629.042,273.602 C623.468,271.085 620.04,265.86 618.242,260.645 C619.862,254.16 612.12,248.397 610.86,241.737 C609.96,238.32 610.148,235.262 612.12,232.557 L612.665,231.66 C616.62,236.337 616.982,242.1 620.04,246.962 C624.18,246.24 630.84,242.997 635.518,246.065 C640.02,249.12 646.505,252.362 646.865,258.487 C647.763,262.628 646.143,266.045 644.345,269.102 z M644.523,269.287" fill="#000000"/>
    <path d="M650.46,528.847 L651.905,528.847 L651.905,529.56 L650.46,529.56 z" fill="#FFFFFF"/>
    <path d="M650.46,556.925 L651.905,556.925 L651.905,557.647 L650.46,557.647 z" fill="#FFFFFF"/>
    <path d="M645.605,323.28 L645.605,322.382 L643.985,322.557 L644.16,323.28 z M645.605,323.28" fill="#000000"/>
    <path d="M648.662,538.565 L648.662,538.028 L647.04,538.028 L647.227,538.565 z M648.662,538.565" fill="#FFFFFF"/>
    <path d="M647.402,506.523 L647.402,505.8 L645.967,505.988 L645.967,506.523 z M647.402,506.523" fill="#FFFFFF"/>
    <path d="M643.8,550.087 L645.245,550.087 L645.245,550.625 L643.8,550.625 z" fill="#FFFFFF"/>
    <path d="M643.8,578.7 L645.245,578.7 L645.245,579.607 L643.8,579.607 z" fill="#FFFFFF"/>
    <path d="M643.985,553.682 L643.8,552.783 L642.725,552.783 L642.725,553.682 z M643.985,553.682" fill="#FFFFFF"/>
    <path d="M634.62,81.905 L634.62,81.183 L633.182,81.357 L633.182,81.905 z M634.62,81.905" fill="#000000"/>
    <path d="M641.28,557.11 L642.003,558.545 L641.28,559.267 z M641.28,557.11" fill="#FFFFFF"/>
    <path d="M642.362,583.202 L643.797,583.202 L643.797,583.75 L642.362,583.75 z" fill="#FFFFFF"/>
    <path d="M641.103,587.89 L642.538,587.89 L642.538,588.788 L641.103,588.788 z" fill="#FFFFFF"/>
    <path d="M641.103,590.225 L642.538,590.225 L642.538,590.763 L641.103,590.763 z" fill="#FFFFFF"/>
    <path d="M638.585,597.245 L637.685,600.85 z M638.585,597.245" fill="#FFFFFF"/>
    <path d="M630.665,594.005 L632.1,594.005 L632.1,594.552 L630.665,594.552 z" fill="#FFFFFF"/>
    <path d="M631.2,625.508 L632.645,625.508 L632.645,626.045 L631.2,626.045 z" fill="#FFFFFF"/>
    <path d="M612.12,655.205 C604.2,654.13 597.725,648.73 592.325,642.97 C587.46,631.982 584.765,615.968 593.76,605.703 C600.605,595.088 605.46,610.39 611.405,610.39 L622.92,615.068 C619.325,628.388 616.62,642.607 612.305,655.03 z M612.12,655.205" fill="#FFECDC"/>
    <path d="M608.878,98.457 L608.878,97.745 L607.443,97.92 L607.443,98.457 z M608.878,98.457" fill="#FFFFFF"/>
    <path d="M605.46,99.365 L606.905,99.365 L606.905,99.902 L605.46,99.902 z" fill="#FFFFFF"/>
    <path d="M607.265,274.862 C596.64,273.602 587.638,276.66 579.365,280.987 C579.005,279.18 580.987,277.745 578.643,276.66 C586.2,272.158 595.205,266.045 606.005,269.102 C607.265,270.547 610.682,273.068 607.265,274.862 z M607.265,274.862" fill="#000000"/>
    <path d="M604.745,287.997 C601.505,291.065 596.825,291.603 592.862,290.342 C591.425,288.36 585.477,287.823 587.822,284.22 L587.822,282.783 C593.397,284.22 601.505,277.557 605.282,282.423 C603.3,284.58 606.542,285.84 604.745,287.997 z M604.745,287.997" fill="#000000"/>
    <path d="M534.718,292.325 C529.862,294.12 523.018,292.5 519.062,287.648 C509.345,279.902 512.218,266.405 514.385,256.143 C515.995,252.54 519.425,247.5 523.925,247.5 C527.705,246.603 530.763,251.103 532.557,254.345 L532.198,263.34 C528.965,261.368 525.898,259.023 521.583,260.108 C520.497,261.543 518.7,262.443 519.237,264.6 L525.185,269.463 L518.34,277.208 L519.6,278.643 L518.525,280.078 C520.323,281.885 522.305,282.423 524.638,282.06 C526.982,279.728 529.503,275.763 533.105,278.467 C532.557,283.505 534.18,287.823 534.903,292.5 z M534.718,292.325" fill="#FFECDC"/>
    <path d="M624.365,320.4 C624.365,339.667 608.7,355.322 589.258,355.322 C570,355.322 554.345,339.667 554.345,320.4 C554.345,301.142 570,285.477 589.258,285.477 C608.525,285.477 624.365,301.142 624.365,320.4 z M624.365,320.4" fill="url(#Gradient_4)"/>
    <path d="M905.615,320.4 C905.615,339.667 889.95,355.322 870.508,355.322 C851.25,355.322 835.595,339.667 835.595,320.4 C835.595,301.142 851.25,285.477 870.508,285.477 C889.775,285.477 905.615,301.142 905.615,320.4 z M905.615,320.4" fill="url(#Gradient_5)"/>
  </g>
</svg>
